<?xml version="1.0" encoding="utf-8"?>
<!-- Generator: Adobe Illustrator 22.1.0, SVG Export Plug-In . SVG Version: 6.00 Build 0)  -->
<svg version="1.0" xmlns="http://www.w3.org/2000/svg"
 width="16.000000pt" height="16.000000pt" viewBox="0 0 16.000000 16.000000"
 preserveAspectRatio="xMidYMid meet">

<g transform="translate(0.000000,16.000000) scale(0.100000,-0.100000)"
fill="#000000" stroke="none">
<path d="M0 121 c0 -25 5 -41 15 -45 10 -4 15 1 15 14 0 11 7 20 15 20 7 0 18
7 23 16 8 15 10 15 15 0 4 -9 13 -16 22 -16 8 0 15 -9 15 -20 0 -13 5 -18 15
-14 11 5 15 -1 15 -20 0 -26 -1 -26 -75 -26 -60 0 -75 -3 -75 -15 0 -12 16
-15 80 -15 l80 0 0 80 0 80 -80 0 -80 0 0 -39z"/>
</g>
</svg>