<?xml version="1.0" encoding="utf-8"?>
<!-- Generator: Adobe Illustrator 22.1.0, SVG Export Plug-In . SVG Version: 6.00 Build 0)  -->
<svg version="1.0" xmlns="http://www.w3.org/2000/svg"
 width="147.000000pt" height="147.000000pt" viewBox="0 0 147.000000 147.000000"
 preserveAspectRatio="xMidYMid meet">
<g transform="translate(0.000000,147.000000) scale(0.100000,-0.100000)"
fill="#000000" stroke="none">
<path d="M312 1283 c45 -60 108 -141 140 -182 l58 -74 0 182 0 181 -140 0
-141 0 83 -107z"/>
<path d="M699 743 c0 -4 -3 -20 -5 -34 -3 -20 9 -40 62 -100 123 -138 152
-167 175 -180 l23 -12 -18 28 c-36 55 -216 294 -226 300 -5 3 -10 3 -11 -2z"/>
<path d="M479 397 c-14 -17 -76 -101 -137 -185 l-112 -152 140 0 140 0 0 185
c0 102 -1 185 -2 185 -2 0 -15 -15 -29 -33z"/>
</g>
</svg>